# xmcd
# 
# Track frame offsets:
#     150
#     22435
#     51630
#     89135
#     143877
#     165402
#     192757
#     221195
#     240037
#     286050
# 
# Disc length: 4226
# 
# Revision: 4
# Processed by: cddbd v1.5.2PL0 Copyright (c) Steve Scherf et al.
# Submitted via: BonkEnc v1.0.15
# 
DISCID=9510800a
DTITLE=Jan Akkerman - 10.000 Clowns On A Rainy Day - Disc 1
DYEAR=1997
DGENRE=Blues
TTITLE0=Intro (10.000 Clowns)
TTITLE1=Puccini's Café 
TTITLE2=Skydancer
TTITLE3=Eruptions
TTITLE4=Focus 2
TTITLE5=Pre Madonna
TTITLE6=Virgin Mary
TTITLE7=Soft Focus
TTITLE8=Pedestrians
TTITLE9=No Hang Ups
EXTD=
EXTT0=
EXTT1=
EXTT2=
EXTT3=Orpheo\nQuestions Answers\nDistant Drums\nPuppilla\nTommy\nAnswers Questions\nThe New Bridge\nOrpheo\n
EXTT4=
EXTT5=
EXTT6=
EXTT7=
EXTT8=Miss En Scene\nNico's Delight\nJ's 2000 Flight\n
EXTT9=
PLAYORDER=
